<svg version="1.1" viewBox="0 0 96 96" xmlns="http://www.w3.org/2000/svg" xmlns:xlink="http://www.w3.org/1999/xlink" id="Icons_Briefcase" overflow="hidden"><path d=" M 56 50.5 C 56 52.7 54.2 54.5 52 54.5 L 48 54.5 C 45.8 54.5 44 52.7 44 50.5 L 44 48.5 L 10 48.5 L 10 76.5 C 10 78.7 11.8 80.5 14 80.5 L 86 80.5 C 88.2 80.5 90 78.7 90 76.5 L 90 48.5 L 56 48.5 L 56 50.5 Z" stroke="none" stroke-width="1" stroke-dasharray="" stroke-dashoffset="1" fill="#218A9A" fill-opacity="1"/><path d=" M 86 24.5 L 66 24.5 L 66 18 C 66 14.1 62.9 11 59 11 L 41 11 C 37.1 11 34 14.1 34 18 L 34 24.5 L 14 24.5 C 11.8 24.5 10 26.3 10 28.5 L 10 44.5 L 44 44.5 L 44 42.5 L 56 42.5 L 56 44.5 L 90 44.5 L 90 28.5 C 90 26.3 88.2 24.5 86 24.5 M 40 24.5 L 40 18 C 40 17.4 40.4 17 41 17 L 59 17 C 59.6 17 60 17.4 60 18 L 60 24.5 L 40 24.5 Z" stroke="none" stroke-width="1" stroke-dasharray="" stroke-dashoffset="1" fill="#218A9A" fill-opacity="1"/></svg>